<mxfile host="app.diagrams.net" modified="2023-10-28T11:55:18.904Z" agent="Mozilla/5.0 (Windows NT 10.0; Win64; x64) AppleWebKit/537.36 (KHTML, like Gecko) Chrome/118.0.0.0 Safari/537.36 Edg/118.0.2088.69" etag="r84eTH_2i7u3Vaj9Spaf" version="22.0.8" type="device">
  <diagram name="Page-1" id="IEoj0uD2pnX-OC7L5wCz">
    <mxGraphModel dx="2239" dy="774" grid="1" gridSize="10" guides="1" tooltips="1" connect="1" arrows="1" fold="1" page="1" pageScale="1" pageWidth="850" pageHeight="1100" math="0" shadow="0">
      <root>
        <mxCell id="0" />
        <mxCell id="1" parent="0" />
        <mxCell id="4EscI3LpHr_4H_dqui_q-5" style="edgeStyle=orthogonalEdgeStyle;rounded=0;orthogonalLoop=1;jettySize=auto;html=1;entryX=0;entryY=0.5;entryDx=0;entryDy=0;" edge="1" parent="1" source="4EscI3LpHr_4H_dqui_q-1" target="4EscI3LpHr_4H_dqui_q-3">
          <mxGeometry relative="1" as="geometry" />
        </mxCell>
        <mxCell id="4EscI3LpHr_4H_dqui_q-6" value="Данные" style="edgeLabel;html=1;align=center;verticalAlign=middle;resizable=0;points=[];" vertex="1" connectable="0" parent="4EscI3LpHr_4H_dqui_q-5">
          <mxGeometry x="-0.1636" y="-3" relative="1" as="geometry">
            <mxPoint x="2" y="-4" as="offset" />
          </mxGeometry>
        </mxCell>
        <mxCell id="4EscI3LpHr_4H_dqui_q-1" value="Ввод данных для логина" style="swimlane;whiteSpace=wrap;html=1;startSize=60;" vertex="1" parent="1">
          <mxGeometry x="90" y="160" width="200" height="100" as="geometry" />
        </mxCell>
        <mxCell id="4EscI3LpHr_4H_dqui_q-2" value="1" style="text;html=1;align=center;verticalAlign=middle;resizable=0;points=[];autosize=1;strokeColor=none;fillColor=none;" vertex="1" parent="4EscI3LpHr_4H_dqui_q-1">
          <mxGeometry x="160" y="70" width="30" height="30" as="geometry" />
        </mxCell>
        <mxCell id="4EscI3LpHr_4H_dqui_q-10" style="edgeStyle=orthogonalEdgeStyle;rounded=0;orthogonalLoop=1;jettySize=auto;html=1;exitX=1;exitY=0.5;exitDx=0;exitDy=0;entryX=0;entryY=0.5;entryDx=0;entryDy=0;" edge="1" parent="1" source="4EscI3LpHr_4H_dqui_q-3" target="4EscI3LpHr_4H_dqui_q-8">
          <mxGeometry relative="1" as="geometry" />
        </mxCell>
        <mxCell id="4EscI3LpHr_4H_dqui_q-3" value="Обработка данных логина&amp;nbsp;&lt;br&gt;в приложении. Аутентификация" style="swimlane;whiteSpace=wrap;html=1;startSize=60;" vertex="1" parent="1">
          <mxGeometry x="380" y="160" width="200" height="100" as="geometry" />
        </mxCell>
        <mxCell id="4EscI3LpHr_4H_dqui_q-4" value="2" style="text;html=1;align=center;verticalAlign=middle;resizable=0;points=[];autosize=1;strokeColor=none;fillColor=none;" vertex="1" parent="4EscI3LpHr_4H_dqui_q-3">
          <mxGeometry x="160" y="70" width="30" height="30" as="geometry" />
        </mxCell>
        <mxCell id="4EscI3LpHr_4H_dqui_q-13" style="edgeStyle=orthogonalEdgeStyle;rounded=0;orthogonalLoop=1;jettySize=auto;html=1;entryX=0;entryY=0.5;entryDx=0;entryDy=0;" edge="1" parent="1" source="4EscI3LpHr_4H_dqui_q-8" target="4EscI3LpHr_4H_dqui_q-11">
          <mxGeometry relative="1" as="geometry" />
        </mxCell>
        <mxCell id="4EscI3LpHr_4H_dqui_q-8" value="&amp;nbsp; &amp;amp;" style="rounded=0;whiteSpace=wrap;html=1;" vertex="1" parent="1">
          <mxGeometry x="620" y="195" width="30" height="30" as="geometry" />
        </mxCell>
        <mxCell id="4EscI3LpHr_4H_dqui_q-9" value="" style="endArrow=none;html=1;rounded=0;entryX=0.25;entryY=0;entryDx=0;entryDy=0;exitX=0.25;exitY=1;exitDx=0;exitDy=0;" edge="1" parent="1" source="4EscI3LpHr_4H_dqui_q-8" target="4EscI3LpHr_4H_dqui_q-8">
          <mxGeometry width="50" height="50" relative="1" as="geometry">
            <mxPoint x="580" y="160" as="sourcePoint" />
            <mxPoint x="630" y="110" as="targetPoint" />
          </mxGeometry>
        </mxCell>
        <mxCell id="4EscI3LpHr_4H_dqui_q-16" style="edgeStyle=orthogonalEdgeStyle;rounded=0;orthogonalLoop=1;jettySize=auto;html=1;entryX=0.5;entryY=0;entryDx=0;entryDy=0;" edge="1" parent="1" source="4EscI3LpHr_4H_dqui_q-11" target="4EscI3LpHr_4H_dqui_q-14">
          <mxGeometry relative="1" as="geometry" />
        </mxCell>
        <mxCell id="4EscI3LpHr_4H_dqui_q-11" value="Создание нового лэйаута (конфигурации)" style="swimlane;whiteSpace=wrap;html=1;startSize=60;" vertex="1" parent="1">
          <mxGeometry x="680" y="160" width="200" height="100" as="geometry" />
        </mxCell>
        <mxCell id="4EscI3LpHr_4H_dqui_q-12" value="3" style="text;html=1;align=center;verticalAlign=middle;resizable=0;points=[];autosize=1;strokeColor=none;fillColor=none;" vertex="1" parent="4EscI3LpHr_4H_dqui_q-11">
          <mxGeometry x="160" y="70" width="30" height="30" as="geometry" />
        </mxCell>
        <mxCell id="4EscI3LpHr_4H_dqui_q-20" style="edgeStyle=orthogonalEdgeStyle;rounded=0;orthogonalLoop=1;jettySize=auto;html=1;exitX=0;exitY=0.75;exitDx=0;exitDy=0;entryX=1;entryY=0.75;entryDx=0;entryDy=0;" edge="1" parent="1" source="4EscI3LpHr_4H_dqui_q-14" target="4EscI3LpHr_4H_dqui_q-17">
          <mxGeometry relative="1" as="geometry" />
        </mxCell>
        <mxCell id="4EscI3LpHr_4H_dqui_q-14" value="Отрисовка стен и конфигурации помещения" style="swimlane;whiteSpace=wrap;html=1;startSize=60;" vertex="1" parent="1">
          <mxGeometry x="680" y="320" width="200" height="100" as="geometry" />
        </mxCell>
        <mxCell id="4EscI3LpHr_4H_dqui_q-15" value="4" style="text;html=1;align=center;verticalAlign=middle;resizable=0;points=[];autosize=1;strokeColor=none;fillColor=none;" vertex="1" parent="4EscI3LpHr_4H_dqui_q-14">
          <mxGeometry x="160" y="70" width="30" height="30" as="geometry" />
        </mxCell>
        <mxCell id="4EscI3LpHr_4H_dqui_q-19" style="edgeStyle=orthogonalEdgeStyle;rounded=0;orthogonalLoop=1;jettySize=auto;html=1;exitX=1;exitY=0.25;exitDx=0;exitDy=0;entryX=0;entryY=0.25;entryDx=0;entryDy=0;" edge="1" parent="1" source="4EscI3LpHr_4H_dqui_q-17" target="4EscI3LpHr_4H_dqui_q-14">
          <mxGeometry relative="1" as="geometry" />
        </mxCell>
        <mxCell id="4EscI3LpHr_4H_dqui_q-24" style="edgeStyle=orthogonalEdgeStyle;rounded=0;orthogonalLoop=1;jettySize=auto;html=1;entryX=0.5;entryY=0;entryDx=0;entryDy=0;" edge="1" parent="1" source="4EscI3LpHr_4H_dqui_q-17" target="4EscI3LpHr_4H_dqui_q-25">
          <mxGeometry relative="1" as="geometry">
            <mxPoint x="635" y="530" as="targetPoint" />
            <Array as="points">
              <mxPoint x="480" y="430" />
              <mxPoint x="635" y="430" />
            </Array>
          </mxGeometry>
        </mxCell>
        <mxCell id="4EscI3LpHr_4H_dqui_q-17" value="Расстановка объектов на сцене" style="swimlane;whiteSpace=wrap;html=1;startSize=60;" vertex="1" parent="1">
          <mxGeometry x="380" y="320" width="200" height="100" as="geometry" />
        </mxCell>
        <mxCell id="4EscI3LpHr_4H_dqui_q-18" value="5" style="text;html=1;align=center;verticalAlign=middle;resizable=0;points=[];autosize=1;strokeColor=none;fillColor=none;" vertex="1" parent="4EscI3LpHr_4H_dqui_q-17">
          <mxGeometry x="160" y="70" width="30" height="30" as="geometry" />
        </mxCell>
        <mxCell id="4EscI3LpHr_4H_dqui_q-28" style="edgeStyle=orthogonalEdgeStyle;rounded=0;orthogonalLoop=1;jettySize=auto;html=1;exitX=0.25;exitY=0;exitDx=0;exitDy=0;entryX=0;entryY=0.25;entryDx=0;entryDy=0;" edge="1" parent="1" source="4EscI3LpHr_4H_dqui_q-21" target="4EscI3LpHr_4H_dqui_q-17">
          <mxGeometry relative="1" as="geometry" />
        </mxCell>
        <mxCell id="4EscI3LpHr_4H_dqui_q-35" style="edgeStyle=orthogonalEdgeStyle;rounded=0;orthogonalLoop=1;jettySize=auto;html=1;entryX=0;entryY=0.5;entryDx=0;entryDy=0;" edge="1" parent="1" source="4EscI3LpHr_4H_dqui_q-21" target="4EscI3LpHr_4H_dqui_q-30">
          <mxGeometry relative="1" as="geometry" />
        </mxCell>
        <mxCell id="4EscI3LpHr_4H_dqui_q-21" value="Просмотр отрендеренной сцены" style="swimlane;whiteSpace=wrap;html=1;startSize=60;" vertex="1" parent="1">
          <mxGeometry x="100" y="460" width="200" height="100" as="geometry" />
        </mxCell>
        <mxCell id="4EscI3LpHr_4H_dqui_q-22" value="6" style="text;html=1;align=center;verticalAlign=middle;resizable=0;points=[];autosize=1;strokeColor=none;fillColor=none;" vertex="1" parent="4EscI3LpHr_4H_dqui_q-21">
          <mxGeometry x="160" y="70" width="30" height="30" as="geometry" />
        </mxCell>
        <mxCell id="4EscI3LpHr_4H_dqui_q-23" style="edgeStyle=orthogonalEdgeStyle;rounded=0;orthogonalLoop=1;jettySize=auto;html=1;exitX=0.25;exitY=1;exitDx=0;exitDy=0;entryX=0.5;entryY=0;entryDx=0;entryDy=0;" edge="1" parent="1" source="4EscI3LpHr_4H_dqui_q-14" target="4EscI3LpHr_4H_dqui_q-25">
          <mxGeometry relative="1" as="geometry">
            <mxPoint x="590" y="355" as="sourcePoint" />
            <mxPoint x="640" y="530" as="targetPoint" />
            <Array as="points">
              <mxPoint x="730" y="440" />
              <mxPoint x="635" y="440" />
            </Array>
          </mxGeometry>
        </mxCell>
        <mxCell id="4EscI3LpHr_4H_dqui_q-27" style="edgeStyle=orthogonalEdgeStyle;rounded=0;orthogonalLoop=1;jettySize=auto;html=1;exitX=0.5;exitY=1;exitDx=0;exitDy=0;entryX=0.5;entryY=0;entryDx=0;entryDy=0;" edge="1" parent="1" source="4EscI3LpHr_4H_dqui_q-25" target="4EscI3LpHr_4H_dqui_q-21">
          <mxGeometry relative="1" as="geometry">
            <Array as="points">
              <mxPoint x="635" y="495" />
              <mxPoint x="460" y="495" />
              <mxPoint x="460" y="430" />
              <mxPoint x="200" y="430" />
            </Array>
          </mxGeometry>
        </mxCell>
        <mxCell id="4EscI3LpHr_4H_dqui_q-25" value="O" style="rounded=0;whiteSpace=wrap;html=1;" vertex="1" parent="1">
          <mxGeometry x="620" y="480" width="30" height="30" as="geometry" />
        </mxCell>
        <mxCell id="4EscI3LpHr_4H_dqui_q-26" value="" style="endArrow=none;html=1;rounded=0;entryX=0.25;entryY=0;entryDx=0;entryDy=0;exitX=0.25;exitY=1;exitDx=0;exitDy=0;" edge="1" parent="1" source="4EscI3LpHr_4H_dqui_q-25" target="4EscI3LpHr_4H_dqui_q-25">
          <mxGeometry width="50" height="50" relative="1" as="geometry">
            <mxPoint x="580" y="505" as="sourcePoint" />
            <mxPoint x="630" y="455" as="targetPoint" />
          </mxGeometry>
        </mxCell>
        <mxCell id="4EscI3LpHr_4H_dqui_q-34" style="edgeStyle=orthogonalEdgeStyle;rounded=0;orthogonalLoop=1;jettySize=auto;html=1;entryX=0;entryY=0.5;entryDx=0;entryDy=0;" edge="1" parent="1" source="4EscI3LpHr_4H_dqui_q-30" target="4EscI3LpHr_4H_dqui_q-32">
          <mxGeometry relative="1" as="geometry" />
        </mxCell>
        <mxCell id="4EscI3LpHr_4H_dqui_q-30" value="Просмотр данных о заказе" style="swimlane;whiteSpace=wrap;html=1;startSize=60;" vertex="1" parent="1">
          <mxGeometry x="400" y="510" width="200" height="100" as="geometry" />
        </mxCell>
        <mxCell id="4EscI3LpHr_4H_dqui_q-31" value="7" style="text;html=1;align=center;verticalAlign=middle;resizable=0;points=[];autosize=1;strokeColor=none;fillColor=none;" vertex="1" parent="4EscI3LpHr_4H_dqui_q-30">
          <mxGeometry x="160" y="70" width="30" height="30" as="geometry" />
        </mxCell>
        <mxCell id="4EscI3LpHr_4H_dqui_q-32" value="Формирование и оформление заказа" style="swimlane;whiteSpace=wrap;html=1;startSize=60;" vertex="1" parent="1">
          <mxGeometry x="700" y="510" width="200" height="100" as="geometry" />
        </mxCell>
        <mxCell id="4EscI3LpHr_4H_dqui_q-33" value="8" style="text;html=1;align=center;verticalAlign=middle;resizable=0;points=[];autosize=1;strokeColor=none;fillColor=none;" vertex="1" parent="4EscI3LpHr_4H_dqui_q-32">
          <mxGeometry x="160" y="70" width="30" height="30" as="geometry" />
        </mxCell>
        <mxCell id="4EscI3LpHr_4H_dqui_q-37" style="edgeStyle=orthogonalEdgeStyle;rounded=0;orthogonalLoop=1;jettySize=auto;html=1;entryX=0;entryY=0.5;entryDx=0;entryDy=0;" edge="1" parent="1" source="4EscI3LpHr_4H_dqui_q-36" target="4EscI3LpHr_4H_dqui_q-1">
          <mxGeometry relative="1" as="geometry" />
        </mxCell>
        <mxCell id="4EscI3LpHr_4H_dqui_q-36" value="User" style="ellipse;whiteSpace=wrap;html=1;aspect=fixed;" vertex="1" parent="1">
          <mxGeometry x="-80" y="170" width="80" height="80" as="geometry" />
        </mxCell>
      </root>
    </mxGraphModel>
  </diagram>
</mxfile>
